<?xml version="1.0" encoding="UTF-8" standalone="no"?>
<!-- Created with Inkscape (http://www.inkscape.org/) -->

<svg
   width="210mm"
   height="297mm"
   viewBox="0 0 210 297"
   version="1.1"
   id="svg33129"
   inkscape:version="1.2.1 (9c6d41e410, 2022-07-14)"
   sodipodi:docname="retofc2.svg"
   xmlns:inkscape="http://www.inkscape.org/namespaces/inkscape"
   xmlns:sodipodi="http://sodipodi.sourceforge.net/DTD/sodipodi-0.dtd"
   xmlns="http://www.w3.org/2000/svg"
   xmlns:svg="http://www.w3.org/2000/svg">
  <sodipodi:namedview
     id="namedview33131"
     pagecolor="#ffffff"
     bordercolor="#000000"
     borderopacity="0.25"
     inkscape:showpageshadow="2"
     inkscape:pageopacity="0.0"
     inkscape:pagecheckerboard="0"
     inkscape:deskcolor="#d1d1d1"
     inkscape:document-units="mm"
     showgrid="false"
     inkscape:zoom="0.74564394"
     inkscape:cx="135.45339"
     inkscape:cy="561.9304"
     inkscape:window-width="1920"
     inkscape:window-height="1017"
     inkscape:window-x="-8"
     inkscape:window-y="-8"
     inkscape:window-maximized="1"
     inkscape:current-layer="layer1" />
  <defs
     id="defs33126" />
  <g
     inkscape:label="Camada 1"
     inkscape:groupmode="layer"
     id="layer1">
    <rect
       style="fill:#000000;stroke:#010000;stroke-width:0.548451"
       id="rect31838"
       width="190.74075"
       height="32.127861"
       x="7.17801"
       y="67.678017" />
    <g
       id="g34771"
       transform="translate(-1.4193548,-46.129032)">
      <g
         id="g34761"
         style="stroke:#ffc0cb;stroke-opacity:1">
        <path
           style="fill:none;stroke:#ffc0cb;stroke-width:0.284;stroke-dasharray:none;stroke-opacity:1"
           d="m 22.042903,122.01525 -0.122116,1.18091 -0.360694,0.092 -0.850668,1.49936 -0.394804,0.45445 -0.506437,0.88091 c 0,0 0.848054,-0.53196 1.188234,-0.87788 0.375861,-0.38221 0.91389,-1.29437 0.91389,-1.29437 0.509042,-0.72098 -0.01053,-0.59754 -0.189666,-0.61496 0.947803,-1.23696 1.920301,-2.39386 3.0017,-3.19765 0.497606,-0.33106 3.159535,-2.3991 3.188038,-1.96273 0.05598,0.85696 0.0086,0.84928 -0.01215,1.06442 l -1.992648,0.95035 -2.693745,2.14624 c -2.416694,2.21405 -0.482881,0.9136 1.152467,-0.20544 l 2.522713,-1.4393 0.418426,-0.0625 c -2.784995,1.81021 -4.773568,2.54434 -0.24856,0.77093 l -1.608327,1.25035 -1.314679,0.46791 -3.059932,2.06273 -0.31012,0.25597 0.03627,0.43297 0.06322,0.20499"
           id="path2032"
           sodipodi:nodetypes="ccccccssccsccccccccccccc" />
        <path
           style="fill:none;stroke:#ffc0cb;stroke-width:0.284;stroke-dasharray:none;stroke-opacity:1"
           d="m 13.694475,127.90299 c 0,0 0.272379,-0.008 0.398627,0.031 0.177933,0.0551 0.474498,0.277 0.474498,0.277 l -4.000773,3.58508 z"
           id="path2088"
           sodipodi:nodetypes="csccc" />
        <path
           style="fill:none;stroke:#ffc0cb;stroke-width:0.284;stroke-dasharray:none;stroke-opacity:1"
           d="m 19.164316,126.24282 1.64127,-0.19742 4.423027,-3.1621 4.298744,-2.77662 3.235291,-1.17879 1.569228,0.042 0.218282,0.077 -0.369515,0.53645 -2.344525,0.59787 -1.990986,0.64037 c -1.27178,0.71214 -2.641748,1.10592 -3.793972,2.20569 -0.423969,-0.15389 -1.439104,0.64877 -2.172997,0.99635 l -1.285562,1.03537 -1.96187,1.20783 0.474493,0.277 1.475232,-0.42041 1.819454,-1.03885 1.01504,-0.96639 c -0.160609,-0.25602 0.789254,-1.0701 0.488304,-1.0974 -0.329476,-0.0299 0.094,0.46247 0.094,0.46247 l 1.482382,-0.55491 1.303696,-0.81888 2.223579,-0.83236 2.409412,-0.70285 -0.07537,0.85943 -0.394804,0.45445 -2.743156,0.56685 -2.191135,0.77986 -2.656311,1.16381 -0.171032,0.70694 -1.240474,1.02388 -2.674449,0.94733 -0.09733,0.15748 2.194962,-0.29439 c 0,0 0.920063,-0.34244 1.090907,-0.72041 0.05373,-0.11887 -0.06871,-0.38047 -0.06871,-0.38047 l 0.735698,-0.45294 4.613692,-0.3363 0.98809,-0.73841 c 0.137227,-0.38348 -4.05889,0.35148 -5.244911,0.49727 -0.743274,0.0914 1.689687,-0.82888 1.689687,-0.82888 1.623276,-0.59889 3.113101,-0.75415 4.544976,-0.71677"
           id="path2144"
           sodipodi:nodetypes="ccccccccccccccccccscccccccccccccccsccccscc" />
        <path
           style="fill:none;stroke:#ffc0cb;stroke-width:0.284;stroke-dasharray:none;stroke-opacity:1"
           d="m 24.705041,125.75857 4.359637,0.25914 c 0,0 -1.379826,1.19641 -1.182745,1.05337 0.187869,-0.13635 -2.928072,-0.6242 -3.05211,-0.59257 l -1.211862,0.48592 c 0,0 0.663202,-0.32643 0.791769,-0.11346 0.152083,0.25193 -0.627392,0.64643 -0.627392,0.64643 -0.888552,0.005 -2.117024,0.0976 -2.579283,-0.006 l 2.060197,0.84552 1.602176,1.09497 0.728547,-0.31845 -2.803554,-1.3635 1.114534,-0.32843 1.955714,1.13749 0.535553,-0.31346 -2.361496,-1.03401 c 0,0 0.370179,-0.18215 0.573487,-0.19046 0.796926,-0.0326 2.312585,0.56004 2.312585,0.56004 l -0.07753,0.064"
           id="path2146"
           sodipodi:nodetypes="ccsccsccccccccccscc" />
        <path
           style="fill:none;stroke:#ffc0cb;stroke-width:0.284;stroke-dasharray:none;stroke-opacity:1"
           d="m 23.697992,132.42752 -0.618075,1.30738 -0.747847,1.51736 c 0,0 0.07466,1.74701 0.372176,1.36441 0.24126,-0.31026 0.689035,-1.66391 0.933685,-1.38786 l 0.510932,-2.91626 0.418426,-0.0625 0.411613,4.80365 c 0.0553,0.0361 -0.761776,3.67181 -0.796925,4.66961 -0.0051,0.14605 0.462408,0.16203 0.546536,0.0375 0.423165,-0.62628 0.317841,-3.97848 0.330083,-3.97568 l 0.36951,-0.53645 c 0.555431,-1.6687 -0.259937,-3.4714 -0.390147,-5.20712 0.107344,0.0318 0.821162,3.2325 0.681635,3.62925 -0.606186,1.72373 0.104359,-1.42787 0.156222,-1.54338 -0.26339,-1.32932 -0.415869,-1.8693 -0.549198,-1.93837 l -0.775801,-0.46549 -0.0935,0.64294 -0.270521,0.069 -0.664326,2.73427 c 0.121584,-0.0307 -0.168739,1.65388 -0.01104,2.3545 0.0873,0.95303 0.548423,1 0.715802,0.5613 0.36304,1.52932 0.902741,1.98089 0.902741,1.98089 l 0.384325,0.29999 -0.296814,-2.22385 0.03244,-0.0525 v 0"
           id="path2150"
           sodipodi:nodetypes="cccsccccsscccsccccccccccccc" />
        <path
           style="fill:none;stroke:#ffc0cb;stroke-width:0.284;stroke-dasharray:none;stroke-opacity:1"
           d="m 15.94999,125.91273 -0.849498,0.084 c -0.270836,0.0254 -1.171921,1.48349 -0.883107,1.55185 0.8223,0.19676 0.780074,0.0203 1.583538,-0.22693 l -0.07919,0.37397 c 0,0 0.444402,0.39924 0.680135,0.313 0.176762,-0.0647 0.189166,-0.49045 0.189166,-0.49045 0,0 0.407694,0.28869 0.59711,0.20151 0.212577,-0.0978 0.196321,-0.62495 0.196321,-0.62495 l 0.354542,2.25334 0.752674,1.17894 c 0,0 1.11894,0.55367 1.733609,0.57502 0.296351,0.0103 0.856652,-0.21845 0.856652,-0.21845 0.133884,0.31748 0.647325,0.23293 1.053474,0.26202 -0.191114,0.11766 0.281094,0.33108 0.873128,0.30801 0.139481,-0.005 -0.144385,0.26171 -0.07919,0.37397 0.150257,0.25874 0.580825,0.44242 0.885769,0.34901 0.20919,-0.0641 0.324427,-0.52495 0.324427,-0.52495 l -0.51792,-0.57548 c 0,0 1.05837,0.92324 1.39271,0.57351 0.213821,-0.22367 -0.523409,-0.75096 -0.523409,-0.75096 0,0 0.334786,-0.73311 0.06821,-0.72495 -0.496756,0.0152 -2.067657,-0.1906 -2.063525,-0.22556 l 2.175662,0.90452 -0.757663,-0.24901 0.667487,0.272"
           id="path2148"
           sodipodi:nodetypes="cccccscscccsccsssccscscccc" />
        <path
           style="fill:none;stroke:#ffc0cb;stroke-width:0.284;stroke-dasharray:none;stroke-opacity:1"
           d="m 10.792265,131.73859 2.709717,-2.72519 0.923202,-0.63342 0.881945,-0.13646 c 1.539017,0.3046 2.730109,1.58146 3.855862,3.04092 l 3.274224,1.15503 0.674642,0.13752 -0.398132,1.0744 c 0.156356,0.32313 -0.155868,0.8893 -0.432233,1.43688 0,0 -0.0011,2.5489 0.529398,2.03186 0.147438,-0.14371 0.534419,-1.69549 0.722558,-1.59935 l 0.172532,2.60931 c 0.02129,0.32196 0.891981,0.008 0.593786,0.82146 l 0.23475,0.60346 -0.256878,2.32082 c 0,0 0.378927,0.0663 0.405786,-0.10348 0.319135,-2.01712 0.08795,-3.78573 0.35204,-3.27374 l 0.261209,-0.72993 c 0,0 0.207824,-0.0366 0.257877,-0.10999 0.297358,-0.43586 -0.03677,-1.53838 -0.03677,-1.53838 0,0 0.548,-0.0902 0.503114,-0.26096 -0.212889,-0.80985 -0.413706,-1.83461 -0.363359,-1.80888 0,0 0.264725,0.24547 0.288655,0.1475 0.08947,-0.36624 -0.762203,-2.14356 -0.477159,-2.17785 -0.280992,-2.60304 -1.795619,-1.44456 -0.935184,-1.92839 l 1.462084,-1.56683 0.825879,-0.47593 0.692275,-0.75142 1.085418,-0.89589 1.880514,-1.6293 2.244536,-2.34124 0.07919,-0.37397 0.567998,-0.36595 c 0.03305,-2.11359 0.488631,-0.68709 0.603765,-1.0384 l 0.365688,-1.02191 0.472336,-0.51844 -0.25622,-0.2 c -1.344121,0.0373 -2.307283,0.0584 -3.953356,0.7428 l -3.393675,1.92673 c 0.118081,-1.194 0.504133,-1.51915 0.808907,-2.10781 l 0.257378,-1.2154 0.144078,-0.47896 -0.815397,-0.27851 c -0.945742,0.21889 -1.738168,0.64368 -2.463318,1.15882 l -2.069676,2.11976 -2.201113,2.63972 -1.674377,2.77073 -2.429712,-0.30907 -1.672053,-0.0601 -0.807737,0.69242 -0.744519,0.8974 0.113799,0.36898 z"
           id="path278"
           sodipodi:nodetypes="cccccccccscscccsccscscscccccccccccccccccccccccccccccc" />
      </g>
    </g>
  </g>
</svg>
